<?xml version="1.0" encoding="utf-8"?>
<!-- Generator: Adobe Illustrator 15.1.0, SVG Export Plug-In . SVG Version: 6.00 Build 0)  -->
<!DOCTYPE svg PUBLIC "-//W3C//DTD SVG 1.1//EN" "http://www.w3.org/Graphics/SVG/1.1/DTD/svg11.dtd">
<svg version="1.1" id="Layer_1" xmlns="http://www.w3.org/2000/svg" xmlns:xlink="http://www.w3.org/1999/xlink" x="0px" y="0px"
	 width="507.897px" height="118.793px" viewBox="0 0 507.897 118.793" enable-background="new 0 0 507.897 118.793"
	 xml:space="preserve">
<g>
	<g>
		<path fill="#010101" d="M0,60.306h27.963c10.141,0,16.6,2.532,20.606,6.539c3.437,3.436,5.233,7.688,5.233,13.578v0.162
			c0,8.341-4.331,14.144-11.285,17.498l13.33,19.461H34.016l-10.795-16.355h-0.164h-3.924v16.355H0V60.306z M27.394,87.533
			c4.575,0,7.357-2.046,7.357-5.559V81.81c0-3.679-2.862-5.479-7.277-5.479h-8.341v11.202H27.394z"/>
		<path fill="#010101" d="M59.608,89.088v-0.162c0-16.6,13.655-29.849,31.32-29.849c17.66,0,31.15,13.084,31.15,29.682v0.167
			c0,16.598-13.653,29.845-31.316,29.845C73.102,118.771,59.608,105.686,59.608,89.088z M102.783,89.088v-0.162
			c0-6.79-4.661-12.922-12.02-12.922c-7.278,0-11.857,6.051-11.857,12.755v0.167c0,6.785,4.662,12.917,12.023,12.917
			C98.205,101.843,102.783,95.795,102.783,89.088z"/>
		<path fill="#010101" d="M128.459,89.088v-0.162c0-17.091,13.329-29.849,30.417-29.849c12.592,0,21.097,6.134,25.92,14.884
			L169.015,83.2c-2.126-4.087-5.15-6.95-10.387-6.95c-6.456,0-10.709,5.642-10.709,12.509v0.167c0,7.439,4.415,12.672,10.709,12.672
			c5.402,0,8.427-2.944,10.796-7.193l15.782,8.91c-4.823,8.506-12.836,15.456-27.066,15.456
			C142.275,118.771,128.459,106.831,128.459,89.088z"/>
		<path fill="#010101" d="M191.339,60.306h19.136v21.421l16.271-21.421h22.241l-19.952,24.857l20.362,32.381h-22.817l-11.2-18.153
			l-4.904,5.969v12.185h-19.136V60.306z"/>
	</g>
	<g>
		<path fill="#010101" d="M258.945,111.605v5.547h-5.332V99.757h5.332v5.548h13.519v6.301H258.945z"/>
		<path fill="#010101" d="M253.613,97.521v-6.299h6.652v-5.764h-6.652v-6.3h18.851v6.3h-6.762v5.764h6.762v6.299H253.613z"/>
		<path fill="#010101" d="M253.613,76.734V60.352h5.169v10.191h1.915V60.364h4.549v10.179h2.047V60.4h5.171v16.334H253.613z"/>
	</g>
	<g>
		<path fill="#010101" d="M327.043,88.101v-0.167c0-17.163,14.119-30.861,32.382-30.861c18.262,0,32.21,13.528,32.21,30.691v0.17
			c0,17.161-14.117,30.859-32.378,30.859C340.993,118.793,327.043,105.265,327.043,88.101z M371.683,88.101v-0.167
			c0-7.019-4.817-13.359-12.426-13.359c-7.525,0-12.26,6.259-12.26,13.189v0.17c0,7.019,4.818,13.359,12.428,13.359
			C366.948,101.293,371.683,95.035,371.683,88.101z"/>
		<path fill="#010101" d="M412.18,75.08h-17.415V58.341h54.614V75.08h-17.418v42.443H412.18V75.08z"/>
		<path fill="#010101" d="M456.396,58.341h51.396v16.233h-31.951v6.002h32.057v14.289h-32.057v6.428h32.007v16.23h-51.451V58.341z"
			/>
	</g>
	<polygon fill="#B32326" points="339.234,0 299.508,82.254 299.508,60.269 278.634,60.269 278.634,116.803 282.979,116.803 
		282.977,116.811 304.572,116.811 360.833,0 	"/>
</g>
</svg>
